<svg xmlns="http://www.w3.org/2000/svg" xmlns:xlink="http://www.w3.org/1999/xlink" width="500" zoomAndPan="magnify" viewBox="0 0 375 374.999991" height="500" preserveAspectRatio="xMidYMid meet" version="1.0"><defs><clipPath id="172a9136f3"><path d="M 38.179688 38.859375 L 336.820312 38.859375 L 336.820312 337.5 L 38.179688 337.5 Z M 38.179688 38.859375 " clip-rule="nonzero"/></clipPath><clipPath id="3576ba2b4c"><path d="M 187.5 38.859375 C 105.03125 38.859375 38.179688 105.710938 38.179688 188.179688 C 38.179688 270.648438 105.03125 337.5 187.5 337.5 C 269.96875 337.5 336.820312 270.648438 336.820312 188.179688 C 336.820312 105.710938 269.96875 38.859375 187.5 38.859375 Z M 187.5 38.859375 " clip-rule="nonzero"/></clipPath><clipPath id="92584883a0"><path d="M 71.496094 105.875 L 303.246094 105.875 L 303.246094 269.375 L 71.496094 269.375 Z M 71.496094 105.875 " clip-rule="nonzero"/></clipPath></defs><g clip-path="url(#172a9136f3)"><g clip-path="url(#3576ba2b4c)"><path fill="#3e3467" d="M 38.179688 38.859375 L 336.820312 38.859375 L 336.820312 337.5 L 38.179688 337.5 Z M 38.179688 38.859375 " fill-opacity="1" fill-rule="nonzero"/></g></g><path fill="#c1c2d9" d="M 298.90625 185.277344 L 298.90625 256.457031 L 294.640625 260.734375 L 288.433594 265.054688 L 273.1875 265.054688 L 268.878906 260.734375 L 260.304688 252.136719 L 251.734375 243.542969 L 247.425781 230.625 L 234.589844 226.351562 L 230.28125 222.03125 L 144.460938 222.03125 L 140.152344 226.351562 L 127.316406 230.625 L 123.007812 243.542969 L 114.4375 252.136719 L 105.863281 260.734375 L 101.554688 265.054688 L 86.308594 265.054688 L 80.101562 260.734375 L 75.835938 256.457031 L 75.835938 185.277344 L 80.101562 183.328125 L 82.789062 177.148438 L 82.789062 161.816406 L 88.671875 157.496094 L 97.292969 140.304688 L 101.554688 129.894531 L 101.554688 124.691406 L 105.863281 123.066406 L 107.53125 118.792969 L 120.597656 118.792969 L 123.007812 114.472656 L 126.113281 110.195312 L 144.460938 110.195312 L 148.773438 114.472656 L 153.035156 118.792969 L 187.371094 117.675781 L 221.707031 118.792969 L 225.96875 114.472656 L 230.28125 110.195312 L 248.628906 110.195312 L 251.734375 114.472656 L 254.144531 118.792969 L 267.210938 118.792969 L 268.878906 123.066406 L 273.1875 124.691406 L 273.1875 129.894531 L 277.449219 140.304688 L 286.070312 157.496094 L 291.953125 161.816406 L 291.953125 177.148438 L 294.640625 183.328125 Z M 298.90625 185.277344 " fill-opacity="1" fill-rule="nonzero"/><path fill="#f7f7f0" d="M 105.863281 228.257812 L 105.863281 236.851562 L 88.671875 236.851562 L 88.671875 211.019531 L 97.292969 211.019531 L 97.292969 228.257812 Z M 105.863281 228.257812 " fill-opacity="1" fill-rule="nonzero"/><g clip-path="url(#92584883a0)"><path fill="#3e3467" d="M 131.582031 114.472656 L 123.007812 114.472656 L 123.007812 105.875 L 148.773438 105.875 L 148.773438 114.472656 Z M 123.007812 123.066406 L 123.007812 114.472656 L 105.863281 114.472656 L 105.863281 123.066406 Z M 105.863281 131.707031 L 105.863281 123.066406 L 97.292969 123.066406 L 97.292969 140.304688 L 105.863281 140.304688 Z M 157.34375 123.066406 L 225.96875 123.066406 L 225.96875 114.472656 L 148.773438 114.472656 L 148.773438 123.066406 Z M 97.292969 148.898438 L 97.292969 140.304688 L 88.671875 140.304688 L 88.671875 157.496094 L 97.292969 157.496094 Z M 88.671875 174.6875 L 88.671875 157.496094 L 80.101562 157.496094 L 80.101562 183.328125 L 88.671875 183.328125 Z M 123.007812 226.351562 L 123.007812 243.542969 L 131.582031 243.542969 L 131.582031 234.945312 L 140.152344 234.945312 L 140.152344 226.351562 Z M 80.101562 243.542969 L 80.101562 183.328125 L 71.527344 183.328125 L 71.527344 260.734375 L 80.101562 260.734375 Z M 114.4375 252.136719 L 123.007812 252.136719 L 123.007812 243.542969 L 114.4375 243.542969 Z M 105.863281 260.734375 L 114.4375 260.734375 L 114.4375 252.136719 L 105.863281 252.136719 Z M 88.671875 260.734375 L 80.101562 260.734375 L 80.101562 269.375 L 105.863281 269.375 L 105.863281 260.734375 Z M 243.160156 114.472656 L 251.734375 114.472656 L 251.734375 105.875 L 225.96875 105.875 L 225.96875 114.472656 Z M 260.304688 123.066406 L 268.878906 123.066406 L 268.878906 114.472656 L 251.734375 114.472656 L 251.734375 123.066406 Z M 268.878906 140.304688 L 277.449219 140.304688 L 277.449219 123.066406 L 268.878906 123.066406 Z M 277.449219 157.496094 L 286.070312 157.496094 L 286.070312 140.304688 L 277.449219 140.304688 Z M 286.070312 174.6875 L 286.070312 183.328125 L 294.640625 183.328125 L 294.640625 157.496094 L 286.070312 157.496094 Z M 294.640625 183.328125 L 294.640625 260.734375 L 303.214844 260.734375 L 303.214844 183.328125 Z M 225.96875 217.710938 L 140.152344 217.710938 L 140.152344 226.351562 L 234.589844 226.351562 L 234.589844 217.710938 Z M 251.734375 226.351562 L 234.589844 226.351562 L 234.589844 234.945312 L 243.160156 234.945312 L 243.160156 243.542969 L 251.734375 243.542969 Z M 251.734375 243.542969 L 251.734375 252.136719 L 260.304688 252.136719 L 260.304688 243.542969 Z M 260.304688 252.136719 L 260.304688 260.734375 L 268.878906 260.734375 L 268.878906 252.136719 Z M 277.449219 260.734375 L 268.878906 260.734375 L 268.878906 269.375 L 294.640625 269.375 L 294.640625 260.734375 Z M 140.152344 166.089844 L 114.4375 166.089844 L 114.4375 140.304688 L 140.152344 140.304688 Z M 131.582031 148.898438 L 123.007812 148.898438 L 123.007812 157.496094 L 131.582031 157.496094 Z M 225.832031 174.871094 L 234.402344 174.871094 L 234.402344 200.65625 L 208.6875 200.65625 L 208.6875 174.871094 Z M 225.832031 183.46875 L 217.257812 183.46875 L 217.257812 192.0625 L 225.832031 192.0625 Z M 165.917969 157.496094 L 174.488281 157.496094 L 174.488281 148.898438 L 165.917969 148.898438 Z M 208.824219 148.898438 L 200.253906 148.898438 L 200.253906 157.496094 L 208.824219 157.496094 Z M 234.589844 148.898438 L 234.589844 157.496094 L 243.160156 157.496094 L 243.160156 148.898438 Z M 183.0625 166.089844 L 191.632812 166.089844 L 191.632812 157.496094 L 183.0625 157.496094 Z M 165.917969 174.6875 L 148.773438 174.6875 L 148.773438 183.328125 L 140.152344 183.328125 L 140.152344 200.519531 L 148.773438 200.519531 L 148.773438 209.113281 L 165.917969 209.113281 L 165.917969 200.519531 L 174.488281 200.519531 L 174.488281 183.328125 L 165.917969 183.328125 Z M 251.734375 157.496094 L 260.304688 157.496094 L 260.304688 148.898438 L 251.734375 148.898438 Z M 243.160156 166.089844 L 251.734375 166.089844 L 251.734375 157.496094 L 243.160156 157.496094 Z M 251.734375 140.304688 L 243.160156 140.304688 L 243.160156 148.898438 L 251.734375 148.898438 Z M 251.734375 140.304688 " fill-opacity="1" fill-rule="nonzero"/></g></svg>